BBC Bang Goes the Theory S05E02 Episode 2 HD 720p x264 aac mp4 [aularon]

- - -
Synopsis
- - -
In the second episode of the science series, Liz hits the beach with the RNLI to experience the power of rip currents; Dr Yan attempts to demonstrate evolution by drawing a couple of lines; and Jem is back in the workshop, turning everyday scrap into gold.


- - -
URL
- - - 
http://www.bbc.co.uk/programmes/b013spj0


- - -
Technical Details
- - -
General
Complete name                    : BBC.Bang.Goes.the.Theory.S05E02/Bang_Goes_the_Theory_Series_5_-_Episode_2_b013spj0_default.mp4
Format                           : MPEG-4
Format profile                   : Base Media
Codec ID                         : isom
File size                        : 525 MiB
Duration                         : 28mn 10s
Overall bit rate                 : 2 607 Kbps
Movie name                       : Bang Goes the Theory: Series 5: Episode 2
Album                            : Bang Goes the Theory: Series 5
Track name/Position              : 2
Track name/Total                 : 0
Performer                        : Bang Goes the Theory: Series 5
Genre                            : Factual,Science & Nature
Recorded date                    : 2011-08-22T19:30:00+01:00
Writing application              : Lavf53.6.0
Cover                            : Yes
Comment                          : Recorded using get_iplayer, by Aularon.
rtng                             : 2
stik                             : 1
desc                             : Science series. Liz hits the beach with the RNLI to experience the power of rip currents, while Dr Yan attempts to demonstrate evolution by drawing a couple of lines.
tvnn                             : BBC One
tvsh                             : Bang Goes the Theory: Series 5
tven                             : b013spj0
catg                             : Factual,Science & Nature
tvsn                             : 5
tves                             : 2

Video
ID                               : 1
Format                           : AVC
Format/Info                      : Advanced Video Codec
Format profile                   : High@L4.1
Format settings, CABAC           : Yes
Format settings, ReFrames        : 6 frames
Format settings, GOP             : M=1, N=50
Codec ID                         : avc1
Codec ID/Info                    : Advanced Video Coding
Duration                         : 28mn 10s
Bit rate mode                    : Variable
Bit rate                         : 2 507 Kbps
Maximum bit rate                 : 3 500 Kbps
Width                            : 1 280 pixels
Height                           : 720 pixels
Display aspect ratio             : 16:9
Frame rate mode                  : Constant
Frame rate                       : 25.000 fps
Standard                         : PAL
Color space                      : YUV
Chroma subsampling               : 4:2:0
Bit depth                        : 8 bits
Scan type                        : Progressive
Bits/(Pixel*Frame)               : 0.109
Stream size                      : 505 MiB (96%)

Audio
ID                               : 2
Format                           : AAC
Format/Info                      : Advanced Audio Codec
Format profile                   : HE-AAC / LC
Codec ID                         : 40
Duration                         : 28mn 10s
Bit rate mode                    : Constant
Bit rate                         : 96.0 Kbps
Channel(s)                       : 2 channels
Channel positions                : Front: L R
Sampling rate                    : 48.0 KHz / 24.0 KHz
Compression mode                 : Lossy
Stream size                      : 19.1 MiB (4%)

